<svg width="1799" height="2149" viewBox="0 0 1799 2149" fill="none" xmlns="http://www.w3.org/2000/svg">
<path d="M394.5 2148.5H158V2097.5H347.5V1916.5H394.5V2148.5Z" fill="#3BA939"/>
<path d="M1454 615.5L1443.5 1104H1335.5V1222.5H1217.5V1382H1170.5V1433H1104V1685H975.5V1793H862.5V1916.5H754.5V1865.5H815.5V1742H928.5V1634H1057V1382H1170.5V1171.5H1288.5V1053H1396.5L1405.9 615.5H1454Z" fill="#3BA939"/>
<path d="M1798.5 1562V1793H1680V1916.5H1443.5V1865.5H1633V1742H1751.5V1562H1798.5Z" fill="#3BA939"/>
<path d="M707.5 1742V1793H394.5V1742H707.5Z" fill="#3BA939"/>
<path d="M1396.5 1634V1685H1217.5V1634H1396.5Z" fill="#3BA939"/>
<path d="M347.5 1634V1685H271V1634H347.5Z" fill="#3BA939"/>
<path d="M1443.5 1511H1396.5V1433H1443.5V1511Z" fill="#3BA939"/>
<path d="M347.5 1274V1325H271V1274H347.5Z" fill="#3BA939"/>
<path d="M224 1053V1104H158V1053H224Z" fill="#3BA939"/>
<path d="M1304.5 518V564.5H1257.5V518H1304.5Z" fill="#3BA939"/>
<path d="M975.5 389.5V467H928.5V389.5H975.5Z" fill="#3BA939"/>
<path d="M1454 389.5H1217.5V338.5H1407V149.5H1454V389.5Z" fill="#3BA939"/>
<path d="M862.5 338.5H815.5V271H862.5V338.5Z" fill="#3BA939"/>
<path d="M641.5 338.5H594.5V271H641.5V338.5Z" fill="#3BA939"/>
<path d="M271 271H47V220H224V51H271V271Z" fill="#3BA939"/>
<path d="M111 929.5V1027.5V1053H224V1274H347.5V1382H224V1634H347.5V1742H707.5V1865.5H815.5V1742H928.5V1634H1057V1382H1170.5V1171.5H1288.5V1053H1396.5L1407 564.5H1257.5V467H928.5V338.5H815.5V220H707.5V338.5H594.5V220H455.5V338.5H347.5V467H224V929.5H111Z" fill="#6DFF67"/>
<path d="M0 0H224V220H0V0Z" fill="#6DFF67"/>
<path d="M1170.5 338.5V98.5H1407V338.5H1170.5Z" fill="#6DFF67"/>
<path d="M111 1865.5H347.5V2097.5H111V1865.5Z" fill="#6DFF67"/>
<path d="M1396.5 1382H1170.5V1634H1396.5V1865.5H1633V1742H1751.5V1511H1396.5V1382Z" fill="#6DFF67"/>
</svg>
